#!OML:ASF F:\VICON\USERDATA\INSTALL\rory3\rory3.ASF
:FULLY-SPECIFIED
:DEGREES
1195
root 8.42848 17.7848 -7.67474 178.945 69.8966 180.498
lowerback 18.8423 2.82064 0.912919
upperback 2.38865 4.22021 1.42369
thorax -8.00107 2.10763 -0.0627503
lowerneck -14.3292 -8.60457 -11.6525
upperneck 34.3918 -10.288 7.06344
head 15.5695 -4.45223 3.29617
rclavicle -4.45278e-014 0
rhumerus -23.13 23.2206 -85.3605
rradius 42.8856
rwrist -0.836235
rhand -22.3442 8.18676
rfingers 7.12502
rthumb 4.07635 -21.754
lclavicle -4.45278e-014 0
lhumerus -36.7262 -17.5222 99.5661
lradius 55.1101
lwrist 0.568563
lhand -25.1885 21.5063
lfingers 7.12502
lthumb 1.3295 51.4819
rfemur -19.1896 -2.4011 17.234
rtibia 25.1832
rfoot -6.08323 16.5059
rtoes 2.11346
lfemur -3.33576 -8.68278 -15.9428
ltibia 33.7924
lfoot 8.4207 -35.9529
ltoes 33.1863
1196
root 8.38021 17.7665 -7.71226 178.909 70.4845 180.651
lowerback 18.615 2.65036 0.918819
upperback 2.25019 3.98321 1.3972
thorax -8.02534 1.98827 -0.0268737
lowerneck -14.1819 -8.61061 -11.5718
upperneck 34.2744 -10.3545 7.04663
head 15.4777 -4.48341 3.26125
rclavicle 6.65929e-015 1.03368e-014
rhumerus -23.3184 21.9827 -85.1653
rradius 42.2769
rwrist -1.0553
rhand -22.686 8.20438
rfingers 7.12502
rthumb 3.74632 -21.7424
lclavicle 6.65929e-015 1.03368e-014
lhumerus -36.7853 -16.6566 99.1227
lradius 55.0588
lwrist 1.44605
lhand -24.968 21.7057
lfingers 7.12502
lthumb 1.54247 51.6799
rfemur -19.2461 -2.1211 17.1814
rtibia 25.2084
rfoot -5.88816 16.7989
rtoes 1.85939
lfemur -2.2624 -9.90755 -16.6008
ltibia 32.6236
lfoot 6.06875 -35.6875
ltoes 34.4232
1197
root 8.33029 17.7508 -7.74125 178.859 71.1784 180.753
lowerback 18.3958 2.45759 0.719933
upperback 2.17281 3.68778 1.47948
thorax -8.00776 1.85144 0.256034
lowerneck -14.3905 -8.56597 -11.9051
upperneck 34.3182 -10.2463 7.17628
head 15.5705 -4.469 3.38739
rclavicle 2.8625e-014 -9.54166e-015
rhumerus -23.2379 20.9314 -84.8066
rradius 41.4008
rwrist -0.972718
rhand -22.8766 8.34737
rfingers 7.12502
rthumb 3.56231 -21.6026
lclavicle 2.8625e-014 -9.54166e-015
lhumerus -36.6657 -15.3426 98.7003
lradius 54.9089
lwrist 2.01293
lhand -25.1022 22.2094
lfingers 7.12502
lthumb 1.41284 52.1845
rfemur -19.3666 -1.66408 17.1388
rtibia 25.1771
rfoot -5.65684 16.9289
rtoes 1.64777
lfemur -1.3271 -10.8188 -17.2144
ltibia 31.5656
lfoot 2.50275 -34.7025
ltoes 33.0472
1198
root 8.27822 17.7388 -7.76946 179.266 71.8472 181.292
lowerback 18.1312 2.25979 0.662791
upperback 2.07303 3.41602 1.58932
thorax -7.98013 1.72185 0.482858
lowerneck -14.4822 -8.53983 -12.395
upperneck 34.3638 -10.2135 7.56186
head 15.6791 -4.47288 3.64217
rclavicle -9.93923e-016 -1.59028e-015
rhumerus -23.0973 19.4361 -84.3499
rradius 40.4406
rwrist -0.475376
rhand -22.6978 8.55306
rfingers 7.12502
rthumb 3.73491 -21.394
lclavicle -9.93923e-016 -1.59028e-015
lhumerus -36.5499 -14.0932 98.3298
lradius 54.64
lwrist 2.45807
lhand -25.1623 22.5797
lfingers 7.12502
lthumb 1.35486 52.5551
rfemur -19.4615 -1.05887 17.2135
rtibia 25.0854
rfoot -5.3448 16.9218
rtoes 1.92251
lfemur -0.53876 -11.5475 -17.6551
ltibia 30.6203
lfoot -1.45487 -33.0901
ltoes 29.9006
1199
root 8.22654 17.7261 -7.80241 180.003 72.5949 182.195
lowerback 17.8548 2.17001 0.749644
upperback 1.98117 3.30956 1.64301
thorax -7.92579 1.66647 0.526816
lowerneck -14.3639 -8.61239 -12.5506
upperneck 34.2352 -10.4225 7.86829
head 15.6535 -4.551 3.75813
rclavicle -3.47873e-015 1.19271e-015
rhumerus -23.0811 17.4495 -83.8362
rradius 39.6159
rwrist -0.080307
rhand -22.3654 8.91105
rfingers 7.12502
rthumb 4.05589 -21.0301
lclavicle -3.47873e-015 1.19271e-015
lhumerus -36.4045 -13.2328 97.9303
lradius 54.3544
lwrist 3.31078
lhand -24.9216 22.7776
lfingers 7.12502
lthumb 1.58731 52.7515
rfemur -19.5059 -0.503003 17.4081
rtibia 24.9373
rfoot -5.08852 17.0703
rtoes 1.72787
lfemur 0.21339 -12.1211 -18.0301
ltibia 29.8174
lfoot -4.59869 -31.1727
ltoes 27.4693
1200
root 8.17365 17.7134 -7.83403 180.497 73.3171 182.848
lowerback 17.5591 2.13572 0.838653
upperback 1.94139 3.26629 1.58679
thorax -7.79762 1.64072 0.437662
lowerneck -14.2171 -8.78476 -12.3515
upperneck 34.0412 -10.8242 7.98584
head 15.5736 -4.69081 3.691
rclavicle -2.45499e-014 -3.37934e-014
rhumerus -23.0787 15.067 -83.338
rradius 38.9097
rwrist 0.495408
rhand -22.3398 8.76091
rfingers 7.12502
rthumb 4.08066 -21.1798
lclavicle -2.45499e-014 -3.37934e-014
lhumerus -36.2094 -12.8363 97.4444
lradius 54.0926
lwrist 4.32385
lhand -24.5366 23.1023
lfingers 7.12502
lthumb 1.95913 53.0731
rfemur -19.5365 0.0611686 17.4846
rtibia 24.7048
rfoot -4.71053 17.2046
rtoes 2.20121
lfemur 0.868064 -12.5507 -18.5108
ltibia 29.189
lfoot -6.78332 -29.5498
ltoes 26.167
1201
root 8.11622 17.7024 -7.86468 180.682 73.8141 183.251
lowerback 17.3053 1.88598 0.853826
upperback 1.98741 2.93785 1.62984
thorax -7.60745 1.48435 0.563264
lowerneck -14.2643 -8.82614 -12.3155
upperneck 33.8638 -10.8668 7.82145
head 15.4874 -4.73937 3.59334
rclavicle 4.28381e-014 3.97569e-015
rhumerus -22.9037 13.222 -82.7767
rradius 38.2678
rwrist 0.885015
rhand -22.4712 8.45258
rfingers 7.12502
rthumb 3.95375 -21.4905
lclavicle 4.28381e-014 3.97569e-015
lhumerus -35.9233 -12.0032 97.0178
lradius 53.7945
lwrist 5.1587
lhand -24.4378 23.3373
lfingers 7.12502
lthumb 2.05459 53.3071
rfemur -19.437 0.726622 17.4145
rtibia 24.4317
rfoot -4.75398 16.96
rtoes 1.4146
lfemur 1.47195 -13.0443 -19.0685
ltibia 28.7151
lfoot -8.45753 -28.0773
ltoes 24.911
1202
root 8.05487 17.6895 -7.89599 181.121 74.2147 183.948
lowerback 17.2424 1.48151 0.872831
upperback 1.96098 2.41928 1.77252
thorax -7.60246 1.23565 0.828578
lowerneck -14.3788 -8.77805 -12.4954
upperneck 33.8188 -10.6963 7.63742
head 15.4686 -4.72516 3.56894
rclavicle -5.46658e-014 1.74931e-014
rhumerus -22.7546 11.7076 -82.2379
rradius 37.6061
rwrist 0.997745
rhand -22.4364 8.22512
rfingers 7.12502
rthumb 3.98737 -21.7173
lclavicle -5.46658e-014 1.74931e-014
lhumerus -35.7627 -10.7624 96.6464
lradius 53.4178
lwrist 5.70178
lhand -24.8344 23.7393
lfingers 7.12502
lthumb 1.67155 53.7125
rfemur -19.2222 1.47982 17.4215
rtibia 24.0931
rfoot -5.29455 16.259
rtoes -2.85995
lfemur 2.02798 -13.6064 -19.5509
ltibia 28.3589
lfoot -10.2053 -26.1768
ltoes 22.7109
1203
root 7.99243 17.6771 -7.91872 181.257 74.8746 184.193
lowerback 17.1061 1.34059 0.606545
upperback 1.85556 2.17758 1.79692
thorax -7.64905 1.12426 1.06477
lowerneck -14.2554 -8.87463 -12.6199
upperneck 33.7773 -10.9446 7.93337
head 15.4889 -4.81535 3.67002
rclavicle -1.44119e-014 7.55382e-015
rhumerus -22.917 9.88645 -81.8126
rradius 37.1657
rwrist 1.36511
rhand -22.9236 7.78408
rfingers 7.12502
rthumb 3.51689 -22.1667
lclavicle -1.44119e-014 7.55382e-015
lhumerus -35.6125 -9.92491 96.2546
lradius 52.898
lwrist 5.93053
lhand -25.0092 24.367
lfingers 7.12502
lthumb 1.50271 54.3415
rfemur -19.1676 2.27109 17.3386
rtibia 23.6859
rfoot -5.82259 15.4445
rtoes -9.05459
lfemur 2.41421 -13.9489 -20.1233
ltibia 28.0738
lfoot -11.9199 -23.9166
ltoes 19.7981
1204
root 7.92743 17.6726 -7.93424 181.941 75.6336 184.86
lowerback 16.8598 1.36958 0.331957
upperback 1.69541 2.15451 1.81553
thorax -7.69659 1.11776 1.25014
lowerneck -13.8578 -9.10537 -12.6536
upperneck 33.5839 -11.4833 8.34731
head 15.4182 -5.00777 3.75278
rclavicle 2.03754e-015 6.36111e-015
rhumerus -23.1774 7.66824 -81.3484
rradius 36.6904
rwrist 1.99695
rhand -23.6079 7.05106
rfingers 7.12502
rthumb 2.856 -22.9096
lclavicle 2.03754e-015 6.36111e-015
lhumerus -35.5006 -9.56502 95.9139
lradius 52.3256
lwrist 6.07351
lhand -24.8809 24.8441
lfingers 7.12502
lthumb 1.62657 54.8177
rfemur -19.2116 3.11775 17.3784
rtibia 23.0801
rfoot -6.17995 14.722
rtoes -14.7482
lfemur 2.47887 -13.9731 -20.4134
ltibia 28.0086
lfoot -13.1345 -22.1329
ltoes 18.2525
1205
root 7.85893 17.6727 -7.95143 182.95 76.2859 185.882
lowerback 16.6987 1.31811 0.154261
upperback 1.53037 2.05289 1.89669
thorax -7.79305 1.07268 1.46388
lowerneck -13.5439 -9.34322 -12.7893
upperneck 33.447 -11.9495 8.63018
head 15.3858 -5.19948 3.80883
rclavicle -6.90777e-015 6.36111e-015
rhumerus -23.3594 5.15523 -80.6901
rradius 36.1003
rwrist 2.40187
rhand -23.6463 6.93781
rfingers 7.12502
rthumb 2.81897 -23.0233
lclavicle -6.90777e-015 6.36111e-015
lhumerus -35.4668 -9.26402 95.6915
lradius 51.8275
lwrist 6.36982
lhand -24.8365 25.0592
lfingers 7.12502
lthumb 1.66944 55.0324
rfemur -19.1596 3.74092 17.5338
rtibia 22.3224
rfoot -6.65465 14.0502
rtoes -19.7219
lfemur 2.42847 -13.7803 -20.4967
ltibia 28.047
lfoot -13.8377 -21.0792
ltoes 18.1735
1206
root 7.78598 17.644 -7.97401 183.962 76.9851 186.993
lowerback 16.6333 1.17949 0.0594019
upperback 1.47874 1.85653 1.97709
thorax -7.81295 0.981561 1.65053
lowerneck -13.5764 -9.54207 -12.8989
upperneck 33.3865 -12.2907 8.76646
head 15.4387 -5.34817 3.81144
rclavicle -3.69243e-014 -1.55052e-014
rhumerus -23.4729 3.18827 -80.0393
rradius 35.6875
rwrist 2.203
rhand -23.5698 7.14712
rfingers 7.12502
rthumb 2.89285 -22.813
lclavicle -3.69243e-014 -1.55052e-014
lhumerus -35.2889 -9.01167 95.4158
lradius 51.4332
lwrist 7.01232
lhand -25.2775 25.3769
lfingers 7.12502
lthumb 1.24351 55.3531
rfemur -19.089 2.90966 18.2075
rtibia 21.4244
rfoot -9.09497 13.5621
rtoes -33.5102
lfemur 2.42073 -13.6498 -20.6262
ltibia 28.153
lfoot -14.4456 -20.0597
ltoes 18.3434
1207
root 7.70809 17.6257 -7.98888 185.268 77.7413 188.347
lowerback 16.523 1.00555 -0.0337981
upperback 1.49046 1.61269 2.041
thorax -7.73592 0.867584 1.83001
lowerneck -13.5562 -9.64321 -13.1734
upperneck 33.0088 -12.542 9.191
head 15.3552 -5.45469 3.97318
rclavicle -2.42517e-014 1.31198e-014
rhumerus -23.4629 1.5189 -79.5535
rradius 35.4075
rwrist 1.97833
rhand -24.0308 6.78986
rfingers 7.12502
rthumb 2.44761 -23.1758
lclavicle -2.42517e-014 1.31198e-014
lhumerus -34.9291 -8.57514 94.9306
lradius 50.9993
lwrist 7.27156
lhand -25.382 25.6006
lfingers 7.12502
lthumb 1.14258 55.5773
rfemur -18.9924 2.76243 18.6042
rtibia 20.5391
rfoot -10.0721 13.1893
rtoes -37.8405
lfemur 2.35013 -13.3371 -20.5886
ltibia 28.1859
lfoot -15.3003 -19.2053
ltoes 16.7534
1208
root 7.633 17.6187 -8.00479 186.264 78.3556 189.439
lowerback 16.4749 0.783353 -0.162161
upperback 1.48981 1.29714 2.0782
thorax -7.70242 0.719394 2.01592
lowerneck -13.5017 -9.72401 -13.3965
upperneck 32.7328 -12.7524 9.54779
head 15.298 -5.543 4.11051
rclavicle 1.98785e-016 -2.10712e-014
rhumerus -23.4255 -0.481348 -79.0049
rradius 35.0711
rwrist 1.93002
rhand -24.4637 6.43286
rfingers 7.12502
rthumb 2.02952 -23.5372
lclavicle 1.98785e-016 -2.10712e-014
lhumerus -34.6085 -7.97106 94.4018
lradius 50.5244
lwrist 7.15888
lhand -24.8917 25.7475
lfingers 7.12502
lthumb 1.61617 55.7211
rfemur -18.8225 2.7816 18.7878
rtibia 19.7974
rfoot -10.8322 12.8386
rtoes -40.1738
lfemur 2.38911 -13.1984 -20.5977
ltibia 28.0579
lfoot -15.9027 -18.553
ltoes 15.107
1209
root 7.56162 17.6142 -8.00639 186.401 78.9976 189.538
lowerback 16.2672 0.658924 -0.72366
upperback 1.4741 1.02158 2.0465
thorax -7.60231 0.601116 2.36564
lowerneck -13.3439 -9.8513 -13.3851
upperneck 32.4282 -13.0798 9.8365
head 15.1954 -5.66281 4.15806
rclavicle -1.55549e-014 -1.51076e-014
rhumerus -23.4978 -2.93715 -78.5008
rradius 34.7276
rwrist 2.23301
rhand -24.8986 6.27099
rfingers 7.12502
rthumb 1.60946 -23.7027
lclavicle -1.55549e-014 -1.51076e-014
lhumerus -34.3051 -7.67953 93.9081
lradius 50.0598
lwrist 7.17581
lhand -25.0524 26.1237
lfingers 7.12502
lthumb 1.46093 56.0984
rfemur -18.9385 2.69304 18.8459
rtibia 19.3922
rfoot -12.3254 12.142
rtoes -43.8717
lfemur 2.42967 -12.864 -20.6603
ltibia 27.5158
lfoot -16.0776 -18.475
ltoes 14.6738
